<?xml version="1.0" encoding="UTF-8"?>
<svg id="Capa_1" xmlns="http://www.w3.org/2000/svg" version="1.1" viewBox="0 0 128 128">
  <!-- Generator: Adobe Illustrator 29.4.0, SVG Export Plug-In . SVG Version: 2.1.0 Build 152)  -->
  <defs>
    <style>
      .st0 {
        fill: #2d3e50;
      }

      .st1 {
        fill: #fff;
      }

      .st2 {
        fill: #2ab092;
      }
    </style>
  </defs>
  <path class="st1" d="M-288.07,60c-9.86.4-19.55,2.75-28.5,6.9L-292.37,1.2c.7-2,1.9-3.2,3.4-3.2h29c1.5,0,2.7,1.2,3.4,3.2l24.2,65.7s-11.6-7-28.5-7l-10.6-32.9c-.4-1.7-1.6-2.8-2.9-2.8s-2.5,1.1-2.9,2.7l-10.8,33.1ZM-293.37,68c-2,6.6-.6,15.8,4.2,20.2.06-.23.13-.47.2-.7.5-2.72,2.94-4.65,5.7-4.5,2.8.1,4.3,1.5,4.7,4.7.2,1.1.2,2.3.2,3.5v.4c0,2.7.7,5.2,2.2,7.4,1.38,2.16,3.36,3.86,5.7,4.9v-.3l-.2-.3c-1.8-5.6-.5-9.5,4.4-12.8l1.5-1c1.09-.7,2.15-1.44,3.2-2.2,3.81-2.64,6.29-6.79,6.8-11.4.3-2,.1-4-.6-6l-.8.6-1.6,1c-7,3.21-14.83,4.15-22.4,2.7-5-.7-9.7-2-13.2-6.2Z"/>
  <rect class="st1" y="0" width="128" height="128"/>
  <g>
    <path class="st2" d="M83.23,43.55c2.85-1.36,5.93-2.04,9.23-2.04s6.23.71,8.8,2.12c2.57,1.41,4.56,3.43,5.97,6.05,1.41,2.62,2.12,5.69,2.12,9.19,0,1.52-.16,3.12-.47,4.79-.79,4.35-2.37,8.24-4.75,11.67-2.38,3.43-5.29,6.1-8.72,8.02-3.43,1.91-7.03,2.87-10.8,2.87-3.3,0-6.12-.67-8.45-2-2.33-1.34-4.15-3-5.46-4.99l-4.71,26.87h-8.96l11.24-63.88h8.96l-1.1,6.36c1.89-1.99,4.26-3.67,7.11-5.03ZM100.08,60.44c0-3.51-1.04-6.25-3.1-8.21-2.07-1.96-4.68-2.95-7.82-2.95-2.25,0-4.49.58-6.72,1.73-2.23,1.15-4.15,2.83-5.78,5.03-1.62,2.2-2.7,4.79-3.22,7.78-.21,1-.31,2.07-.31,3.22,0,3.51,1.03,6.29,3.1,8.33,2.07,2.04,4.65,3.06,7.74,3.06,2.3,0,4.57-.59,6.8-1.77,2.23-1.18,4.15-2.89,5.78-5.15,1.62-2.25,2.7-4.87,3.22-7.86.21-.99.31-2.07.31-3.22Z"/>
    <path class="st0" d="M20.66,56.62c-1.63-.68-2.31-2.44-1.9-4.07l8.27-28.2c.54-1.76,2.58-2.85,4.34-2.31,1.9.54,2.85,2.44,2.31,4.34l-3.12,10.85c2.17-2.58,4.61-5.02,6.92-7.05,2.98-2.44,5.42-4.61,9.22-4.75h.41c2.44,0,4.75,1.76,5.56,3.66.95,1.9.95,3.66.95,5.42,0,2.44-.27,5.02-.27,7.05,0,1.9.27,3.39.68,3.8.27.27.27.54,2.17.68,3.93.14,14.51-3.66,33.9-15.73,1.63-1.08,3.8-.54,4.75,1.08,1.08,1.63.54,3.8-1.08,4.75-19.93,12.2-30.37,16.68-37.56,16.81-3.39.14-6.64-1.49-8.14-3.93-1.36-2.44-1.63-5.02-1.63-7.46,0-2.58.27-5.15.27-7.05v-1.9q-.14-.14-.14-.27c-.14,0-.41.14-.68.27-.54.27-1.22.68-2.03,1.22-1.63,1.22-3.66,3.12-5.56,5.15-4.07,4.2-8,9.36-10.58,12.75-1.76,2.3-2.71,3.8-2.71,3.8-.68.95-1.76,1.49-2.85,1.49-.54,0-1.08-.14-1.49-.41Z"/>
  </g>
</svg>