<?xml version="1.0" encoding="UTF-8"?>
<svg id="Capa_1" xmlns="http://www.w3.org/2000/svg" version="1.1" viewBox="0 0 1138.45 388.61">
  <!-- Generator: Adobe Illustrator 29.4.0, SVG Export Plug-In . SVG Version: 2.1.0 Build 152)  -->
  <defs>
    <style>
      .st0 {
        fill: #fff;
      }

      .st1 {
        fill: #28af90;
      }
    </style>
  </defs>
  <g>
    <path class="st1" d="M574.93,199.16c6.12-2.92,12.72-4.38,19.79-4.38s13.36,1.52,18.87,4.55c5.5,3.03,9.77,7.36,12.8,12.97,3.03,5.62,4.55,12.19,4.55,19.71,0,3.26-.34,6.68-1.01,10.27-1.68,9.32-5.08,17.66-10.19,25.01-5.11,7.36-11.34,13.08-18.7,17.18s-15.08,6.15-23.16,6.15c-7.07,0-13.11-1.43-18.11-4.29-5-2.86-8.9-6.43-11.71-10.7l-10.11,57.61h-19.2l24.09-136.95h19.2l-2.36,13.64c4.04-4.27,9.12-7.86,15.24-10.78h.01ZM611.06,235.37c0-7.52-2.22-13.39-6.65-17.6-4.44-4.21-10.02-6.32-16.76-6.32-4.83,0-9.63,1.24-14.4,3.71-4.78,2.47-8.9,6.06-12.38,10.78s-5.79,10.28-6.91,16.68c-.45,2.13-.67,4.44-.67,6.91,0,7.53,2.22,13.48,6.65,17.86,4.44,4.38,9.96,6.57,16.59,6.57,4.94,0,9.8-1.26,14.57-3.79s8.9-6.2,12.38-11.03c3.48-4.83,5.78-10.44,6.91-16.85.45-2.13.67-4.43.67-6.91h0Z"/>
    <path class="st1" d="M676.25,196.29l-16.34,92.81h-19.2l16.34-92.81h19.2ZM661.59,181.13c-1.91-1.91-2.86-4.32-2.86-7.24,0-3.93,1.49-7.33,4.46-10.19,2.97-2.86,6.37-4.29,10.19-4.29,3.03,0,5.48.96,7.33,2.86,1.85,1.91,2.78,4.33,2.78,7.24,0,3.93-1.46,7.33-4.38,10.19s-6.29,4.3-10.11,4.3c-3.03,0-5.5-.95-7.41-2.86h0Z"/>
    <path class="st1" d="M772.01,202.61c5.78,5.22,8.68,12.72,8.68,22.49,0,2.47-.28,5.56-.84,9.26l-9.77,54.75h-19.03l9.26-51.88c.45-3.14.67-5.39.67-6.74,0-6.17-1.71-10.89-5.14-14.15s-8.17-4.89-14.23-4.89c-7.3,0-13.45,2.22-18.44,6.65-5,4.44-8.17,10.81-9.52,19.12v-.5l-9.26,52.39h-19.2l16.34-92.81h19.2l-1.85,10.78c3.82-3.82,8.34-6.82,13.56-9.01,5.22-2.19,10.64-3.29,16.26-3.29,9.77,0,17.54,2.61,23.33,7.83h-.02Z"/>
    <path class="st1" d="M878.8,204.55c6.91,6.51,10.36,15.27,10.36,26.28,0,2.59-.28,5.67-.84,9.27-.45,2.47-1.24,5.5-2.36,9.1h-70.92c-.11.79-.17,1.97-.17,3.54,0,6.63,2.05,11.9,6.15,15.83,4.1,3.93,9.46,5.89,16.09,5.89,10.44,0,18.47-4.32,24.09-12.97h20.72c-4.27,8.54-10.56,15.53-18.87,20.97-8.31,5.45-17.91,8.17-28.8,8.17-7.75,0-14.54-1.52-20.38-4.55s-10.39-7.38-13.64-13.06c-3.26-5.67-4.89-12.32-4.89-19.96,0-3.26.34-6.74,1.01-10.44,1.68-9.54,5.11-17.94,10.27-25.18,5.16-7.24,11.59-12.83,19.29-16.76,7.69-3.93,16.09-5.9,25.18-5.9,11.56,0,20.8,3.26,27.71,9.77h0ZM869.45,230.99c0-6.17-2.05-11.06-6.15-14.65-4.1-3.59-9.41-5.39-15.92-5.39-6.85,0-13.03,2.19-18.53,6.57s-9.27,10.33-11.29,17.85h51.54c.22-2.02.34-3.48.34-4.38h.01Z"/>
    <path class="st1" d="M910.47,217.52c5.11-7.19,11.37-12.77,18.78-16.76,7.41-3.98,15.21-5.98,23.41-5.98,6.06,0,11.79,1.32,17.18,3.96s9.49,6.15,12.3,10.53l7.92-44.81h19.37l-22.07,124.65h-19.37l2.53-13.98c-4.04,4.61-9.07,8.34-15.08,11.2-6.01,2.86-12.61,4.29-19.79,4.29s-13.36-1.57-18.87-4.72c-5.5-3.14-9.8-7.61-12.89-13.39-3.09-5.78-4.63-12.44-4.63-19.96,0-3.37.34-6.79,1.01-10.28,1.68-9.32,5.08-17.57,10.19-24.76h.01ZM976.92,235.71c0-7.52-2.22-13.45-6.65-17.77-4.44-4.32-9.97-6.48-16.59-6.48-4.94,0-9.77,1.21-14.49,3.62-4.72,2.42-8.82,5.95-12.3,10.61s-5.78,10.19-6.91,16.59c-.45,2.14-.67,4.44-.67,6.91,0,7.64,2.22,13.67,6.65,18.11,4.44,4.44,9.97,6.65,16.59,6.65,4.94,0,9.77-1.23,14.49-3.71,4.72-2.47,8.81-6.09,12.3-10.87,3.48-4.77,5.78-10.36,6.91-16.76.45-2.13.67-4.44.67-6.91h0Z"/>
    <path class="st1" d="M1024.68,217.52c5.11-7.19,11.37-12.77,18.78-16.76,7.41-3.98,15.16-5.98,23.24-5.98,7.3,0,13.42,1.43,18.36,4.3,4.94,2.86,8.65,6.43,11.12,10.7l2.36-13.47h19.37l-16.34,92.81h-19.37l2.53-13.81c-4.04,4.38-9.12,8.03-15.24,10.95s-12.78,4.38-19.96,4.38-13.17-1.57-18.61-4.72c-5.45-3.14-9.72-7.61-12.8-13.39-3.09-5.78-4.63-12.44-4.63-19.96,0-3.37.34-6.79,1.01-10.28,1.68-9.32,5.08-17.57,10.19-24.76h-.01ZM1091.13,235.71c0-7.52-2.22-13.45-6.65-17.77-4.44-4.32-9.97-6.48-16.59-6.48-4.94,0-9.77,1.21-14.49,3.62-4.72,2.42-8.82,5.95-12.3,10.61-3.48,4.66-5.78,10.19-6.91,16.59-.45,2.14-.67,4.44-.67,6.91,0,7.64,2.22,13.67,6.65,18.11,4.44,4.44,9.97,6.65,16.59,6.65,4.94,0,9.77-1.23,14.49-3.71,4.72-2.47,8.81-6.09,12.3-10.87,3.48-4.77,5.78-10.36,6.91-16.76.45-2.13.67-4.44.67-6.91h0Z"/>
  </g>
  <g>
    <path class="st0" d="M24.86,283.1c-3.49-1.45-4.94-5.23-4.07-8.72l17.73-60.46c1.16-3.78,5.52-6.1,9.3-4.94,4.07,1.16,6.11,5.23,4.94,9.3l-6.69,23.26c4.65-5.52,9.88-10.76,14.83-15.12,6.39-5.23,11.63-9.88,19.77-10.17h.87c5.23,0,10.17,3.78,11.92,7.85,2.04,4.07,2.04,7.85,2.04,11.63,0,5.23-.58,10.76-.58,15.12,0,4.07.58,7.27,1.45,8.14.58.58.58,1.16,4.65,1.45,8.43.29,31.1-7.85,72.67-33.72,3.49-2.33,8.14-1.16,10.17,2.33,2.32,3.49,1.16,8.14-2.33,10.17-42.73,26.16-65.11,35.75-80.52,36.04-7.27.29-14.24-3.2-17.44-8.43-2.91-5.23-3.49-10.76-3.49-15.99,0-5.52.58-11.05.58-15.12v-4.07c-.19-.19-.29-.39-.29-.58-.29,0-.87.29-1.45.58-1.16.58-2.62,1.45-4.36,2.62-3.49,2.62-7.85,6.69-11.92,11.05-8.72,9.01-17.15,20.06-22.67,27.32-3.78,4.94-5.81,8.14-5.81,8.14-1.45,2.04-3.78,3.2-6.1,3.2-1.16,0-2.33-.29-3.2-.87h0Z"/>
    <path class="st0" d="M200.13,272.92c-11.34-4.07-18.6-11.92-22.38-20.06-3.78-8.14-4.36-16.57-4.36-22.96s.87-10.76.87-11.34c.87-3.78,4.65-6.4,8.72-5.81,4.07.87,6.69,4.94,5.81,8.72,0,0-.29.87-.29,2.33-.29,1.45-.29,3.49-.29,6.1,0,4.94.58,11.34,3.2,16.57,2.33,5.52,6.11,9.59,13.66,12.5,1.74.58,4.07.87,6.98.87,9.3.29,22.96-4.36,35.46-10.46,12.79-5.81,24.71-13.08,32.27-18.02,4.94-3.2,7.85-5.23,7.85-5.23,3.49-2.33,8.14-1.45,10.46,1.74,2.33,3.49,1.45,8.14-1.74,10.46-.29,0-12.79,9.01-29.36,18.02s-36.91,18.31-54.94,18.31c-4.07,0-8.14-.58-11.92-1.74h0ZM176.88,193.28c-2.62-3.2-2.04-7.85.87-10.47l3.49-2.91c3.2-2.91,7.85-2.33,10.46.58,2.62,3.2,2.33,7.85-.87,10.46l-3.49,3.2c-1.16,1.16-2.91,1.74-4.65,1.74-2.03,0-4.36-.87-5.81-2.62v.02Z"/>
    <path class="st0" d="M293.15,254.32c-5.81-11.92-8.14-27.32-8.14-44.47.29-52.9,20.93-124.12,38.37-160.16,4.36-8.43,8.43-15.41,12.79-20.35,4.36-4.65,8.72-8.72,15.7-9.01,5.52,0,10.46,4.36,11.92,9.01,2.03,4.36,2.62,9.59,2.91,16.28,0,5.23-.58,11.63-1.74,18.6-6.39,43.31-25,128.48-62.49,171.21.87,4.65,2.32,8.72,4.07,12.21,4.65,8.43,9.59,11.92,18.9,12.21,12.5.29,34.01-9.01,63.95-33.43,3.2-2.62,7.85-2.04,10.17,1.16,2.62,3.2,2.33,7.85-.87,10.47-31.1,25.29-54.07,36.62-73.25,36.62h-.58c-14.53,0-25.87-8.43-31.68-20.35h-.03ZM347.5,39.22c-3.2,3.49-6.98,9.3-10.76,17.15-16.57,33.14-36.91,104.35-36.91,153.48v4.65c28.2-40.69,45.05-114.24,50.58-152.31.87-6.69,1.45-12.21,1.45-16.57,0-4.65-.58-7.85-1.16-9.59-.87.58-2.03,1.74-3.2,3.2h0Z"/>
    <path class="st0" d="M394.01,358.96c-3.2-6.11-4.36-12.5-3.78-18.9,1.16-17.15,12.21-31.97,20.93-42.44.87-1.16,2.04-2.33,2.91-3.49-2.32-6.69-4.94-13.37-7.85-20.35-7.85-19.48-16.57-38.66-15.7-57.26.58-9.01,3.78-18.02,10.46-25.29,6.68-7.27,16.57-12.79,29.94-17.15,3.78-1.16,8.14.87,9.3,4.65,1.16,4.07-.87,8.14-4.94,9.3-11.63,3.78-18.89,8.43-23.26,13.37-4.36,4.65-6.1,9.59-6.68,15.99-.87,13.08,6.4,31.39,14.53,50.87,1.74,4.36,3.78,9.01,5.52,13.95,29.65-28.2,65.99-52.03,73.25-56.39,0,0,4.65-4.36,9.59-.87,4.36,6.1-1.45,10.76-2.91,11.34-19.77,13.66-42.73,29.94-74.41,61.62,2.91,10.47,4.94,20.93,4.36,31.39-.29,2.32-.58,4.36-.87,6.68-1.45,9.01-4.94,16.86-9.3,22.67-4.65,5.52-10.46,9.88-18.02,9.59h-.29c-5.52-.29-10.46-4.36-12.79-9.3v.02ZM405.06,340.94c-.29,4.07.29,7.56,2.04,11.34.58.87.87,1.16.87,1.16.29,0,.87,0,1.74-.58s2.32-1.74,3.78-3.49c2.62-3.2,5.23-9.01,6.39-15.99.29-1.45.29-3.2.58-4.94.29-5.23-.29-11.05-1.45-16.86-7.27,8.72-13.66,20.06-13.95,29.36h0Z"/>
  </g>
</svg>